<svg width="110" height="110" viewBox="0 0 110 110" fill="none" xmlns="http://www.w3.org/2000/svg">
<g clip-path="url(#clip0_440_758)">
<path d="M79.8413 73.698C79.7734 73.7582 79.8791 73.8822 79.9539 73.8304C81.8662 72.4956 83.3803 71.9004 83.8658 72.386C84.6738 73.1939 82.4094 76.7694 78.8069 80.3718C75.2053 83.9735 71.629 86.2387 70.8211 85.4307C70.3355 84.9452 70.9307 83.431 72.2655 81.5188C72.3181 81.4432 72.1941 81.3375 72.1331 81.4062C67.5992 86.4915 64.9105 90.7347 65.8264 91.6507C66.9729 92.7971 73.333 88.2965 80.0315 81.5979C86.73 74.8994 91.2307 68.5393 90.0843 67.3929C89.1706 66.4762 84.9266 69.164 79.8413 73.698Z" fill="#FF1A59"/>
<path d="M34.7435 47.5615L57.2626 70.0806C60.2019 73.0199 64.0633 74.0613 66.4318 72.7221L66.9342 73.2245C68.0094 74.2997 69.465 74.5932 70.1788 73.8794L70.2955 73.7627L76.108 78.7913C76.1187 78.8005 76.1294 78.8097 76.1409 78.8181C76.604 79.1836 77.1223 79.2443 77.4014 78.9652C77.6805 78.6861 77.6198 78.1678 77.2543 77.7047C77.2459 77.6932 77.2367 77.6825 77.2275 77.6718L72.1989 71.8593L72.3156 71.7426C73.0294 71.0288 72.7359 69.5732 71.6607 68.498L71.1583 67.9956C72.4982 65.6263 71.4561 61.7657 68.5168 58.8264L45.9977 36.3073C46.7152 35.2099 46.2405 33.3335 44.823 31.9159C44.5695 31.6625 44.227 31.593 44.0584 31.7615L39.2069 36.613L32.7693 30.1755C33.5419 29.0874 33.0755 27.1705 31.6327 25.7277C31.3792 25.4742 31.0367 25.4047 30.8681 25.5733L24.0087 32.4327C23.8402 32.6012 23.9097 32.9438 24.1632 33.1972C25.606 34.6401 27.5228 35.1065 28.6109 34.3339L35.0485 40.7714L30.1969 45.623C30.0284 45.7915 30.0979 46.134 30.3514 46.3875C31.7689 47.8051 33.6461 48.279 34.7435 47.5615ZM67.9052 59.4365C70.7105 62.2417 59.1248 48.243 57.2626 50.1052L45.3186 56.9165C47.3186 59.4165 60.6764 72.2743 57.8719 69.4698L35.3803 46.9782L45.4137 36.9449L67.9052 59.4365ZM29.2394 33.7422L32.1769 30.8047L38.596 37.2239L35.6586 40.1614L29.2394 33.7422Z" fill="#FF1A59"/>
</g>
<defs>
<clipPath id="clip0_440_758">
<rect width="64.1984" height="91.1804" fill="white" transform="translate(0 45.395) rotate(-45)"/>
</clipPath>
</defs>
</svg>
